<mxfile host="app.diagrams.net" agent="Mozilla/5.0 (Windows NT 10.0; Win64; x64) AppleWebKit/537.36 (KHTML, like Gecko) Chrome/129.0.0.0 Safari/537.36" version="24.7.17">
  <diagram name="Page-1" id="j_XR2nvPFNmCN586wQmg">
    <mxGraphModel dx="1728" dy="2043" grid="1" gridSize="10" guides="1" tooltips="1" connect="1" arrows="1" fold="1" page="1" pageScale="1" pageWidth="850" pageHeight="1100" math="0" shadow="0">
      <root>
        <mxCell id="0" />
        <mxCell id="1" parent="0" />
        <mxCell id="yjKRYnCes210UCtiyBJC-2" value="" style="whiteSpace=wrap;html=1;aspect=fixed;" vertex="1" parent="1">
          <mxGeometry x="115" y="60" width="150" height="150" as="geometry" />
        </mxCell>
        <mxCell id="yjKRYnCes210UCtiyBJC-4" value="&lt;font style=&quot;font-size: 21px;&quot;&gt;Users&lt;/font&gt;" style="text;html=1;align=center;verticalAlign=middle;whiteSpace=wrap;rounded=0;" vertex="1" parent="1">
          <mxGeometry x="150" y="60" width="80" height="40" as="geometry" />
        </mxCell>
        <mxCell id="yjKRYnCes210UCtiyBJC-16" style="edgeStyle=orthogonalEdgeStyle;rounded=0;orthogonalLoop=1;jettySize=auto;html=1;entryX=-0.002;entryY=0.574;entryDx=0;entryDy=0;exitX=1.002;exitY=0.544;exitDx=0;exitDy=0;exitPerimeter=0;entryPerimeter=0;" edge="1" parent="1" source="yjKRYnCes210UCtiyBJC-2" target="yjKRYnCes210UCtiyBJC-8">
          <mxGeometry relative="1" as="geometry" />
        </mxCell>
        <mxCell id="yjKRYnCes210UCtiyBJC-5" value="Id (primary key/bigint)" style="text;html=1;align=center;verticalAlign=middle;whiteSpace=wrap;rounded=0;" vertex="1" parent="1">
          <mxGeometry x="130" y="130" width="120" height="30" as="geometry" />
        </mxCell>
        <mxCell id="yjKRYnCes210UCtiyBJC-29" style="edgeStyle=orthogonalEdgeStyle;rounded=0;orthogonalLoop=1;jettySize=auto;html=1;entryX=0;entryY=0.5;entryDx=0;entryDy=0;exitX=0.5;exitY=1;exitDx=0;exitDy=0;" edge="1" parent="1" source="yjKRYnCes210UCtiyBJC-8" target="yjKRYnCes210UCtiyBJC-20">
          <mxGeometry relative="1" as="geometry">
            <mxPoint x="480" y="-70" as="sourcePoint" />
          </mxGeometry>
        </mxCell>
        <mxCell id="yjKRYnCes210UCtiyBJC-8" value="" style="whiteSpace=wrap;html=1;aspect=fixed;" vertex="1" parent="1">
          <mxGeometry x="480" y="-160" width="200" height="200" as="geometry" />
        </mxCell>
        <mxCell id="yjKRYnCes210UCtiyBJC-9" value="&lt;font style=&quot;font-size: 21px;&quot;&gt;Buildings&lt;/font&gt;" style="text;html=1;align=center;verticalAlign=middle;whiteSpace=wrap;rounded=0;" vertex="1" parent="1">
          <mxGeometry x="495" y="-160" width="150" height="50" as="geometry" />
        </mxCell>
        <mxCell id="yjKRYnCes210UCtiyBJC-10" value="Building_id (Primary key)" style="text;html=1;align=center;verticalAlign=middle;whiteSpace=wrap;rounded=0;" vertex="1" parent="1">
          <mxGeometry x="500" y="-90" width="140" height="30" as="geometry" />
        </mxCell>
        <mxCell id="yjKRYnCes210UCtiyBJC-11" value="User_id (bigint)" style="text;html=1;align=center;verticalAlign=middle;whiteSpace=wrap;rounded=0;" vertex="1" parent="1">
          <mxGeometry x="525" y="-60" width="90" height="30" as="geometry" />
        </mxCell>
        <mxCell id="yjKRYnCes210UCtiyBJC-20" value="" style="whiteSpace=wrap;html=1;aspect=fixed;" vertex="1" parent="1">
          <mxGeometry x="610" y="220" width="200" height="200" as="geometry" />
        </mxCell>
        <mxCell id="yjKRYnCes210UCtiyBJC-21" value="Date(DateTime)" style="text;html=1;align=center;verticalAlign=middle;resizable=0;points=[];autosize=1;strokeColor=none;fillColor=none;" vertex="1" parent="1">
          <mxGeometry x="515" y="-30" width="110" height="30" as="geometry" />
        </mxCell>
        <mxCell id="yjKRYnCes210UCtiyBJC-23" value="Location(string)" style="text;html=1;align=center;verticalAlign=middle;resizable=0;points=[];autosize=1;strokeColor=none;fillColor=none;" vertex="1" parent="1">
          <mxGeometry x="515" width="110" height="30" as="geometry" />
        </mxCell>
        <mxCell id="yjKRYnCes210UCtiyBJC-25" value="&lt;font style=&quot;font-size: 21px;&quot;&gt;Service &lt;/font&gt;" style="text;html=1;align=center;verticalAlign=middle;resizable=0;points=[];autosize=1;strokeColor=none;fillColor=none;" vertex="1" parent="1">
          <mxGeometry x="665" y="220" width="90" height="40" as="geometry" />
        </mxCell>
        <mxCell id="yjKRYnCes210UCtiyBJC-26" value="ServiceId(Primary key)" style="text;html=1;align=center;verticalAlign=middle;resizable=0;points=[];autosize=1;strokeColor=none;fillColor=none;" vertex="1" parent="1">
          <mxGeometry x="630" y="270" width="140" height="30" as="geometry" />
        </mxCell>
        <mxCell id="yjKRYnCes210UCtiyBJC-27" value="Building_id(Primary key)" style="text;html=1;align=center;verticalAlign=middle;resizable=0;points=[];autosize=1;strokeColor=none;fillColor=none;" vertex="1" parent="1">
          <mxGeometry x="630" y="300" width="150" height="30" as="geometry" />
        </mxCell>
        <mxCell id="yjKRYnCes210UCtiyBJC-30" value="Price(Double)" style="text;html=1;align=center;verticalAlign=middle;resizable=0;points=[];autosize=1;strokeColor=none;fillColor=none;" vertex="1" parent="1">
          <mxGeometry x="650" y="330" width="100" height="30" as="geometry" />
        </mxCell>
        <mxCell id="yjKRYnCes210UCtiyBJC-31" value="Name(string(50))" style="text;html=1;align=center;verticalAlign=middle;resizable=0;points=[];autosize=1;strokeColor=none;fillColor=none;" vertex="1" parent="1">
          <mxGeometry x="650" y="360" width="110" height="30" as="geometry" />
        </mxCell>
        <mxCell id="yjKRYnCes210UCtiyBJC-32" value="" style="whiteSpace=wrap;html=1;aspect=fixed;" vertex="1" parent="1">
          <mxGeometry x="80" y="640" width="230" height="230" as="geometry" />
        </mxCell>
        <mxCell id="yjKRYnCes210UCtiyBJC-33" value="&lt;font style=&quot;font-size: 21px;&quot;&gt;Panel&lt;/font&gt;" style="text;html=1;align=center;verticalAlign=middle;resizable=0;points=[];autosize=1;strokeColor=none;fillColor=none;" vertex="1" parent="1">
          <mxGeometry x="150" y="640" width="80" height="40" as="geometry" />
        </mxCell>
        <mxCell id="yjKRYnCes210UCtiyBJC-34" value="PanelId(Primary key)" style="text;html=1;align=center;verticalAlign=middle;resizable=0;points=[];autosize=1;strokeColor=none;fillColor=none;" vertex="1" parent="1">
          <mxGeometry x="125" y="680" width="140" height="30" as="geometry" />
        </mxCell>
        <mxCell id="yjKRYnCes210UCtiyBJC-36" value="Dimensions(String(50))" style="text;html=1;align=center;verticalAlign=middle;resizable=0;points=[];autosize=1;strokeColor=none;fillColor=none;" vertex="1" parent="1">
          <mxGeometry x="125" y="760" width="150" height="30" as="geometry" />
        </mxCell>
        <mxCell id="yjKRYnCes210UCtiyBJC-37" value="UnitPrice(decimal)" style="text;html=1;align=center;verticalAlign=middle;resizable=0;points=[];autosize=1;strokeColor=none;fillColor=none;" vertex="1" parent="1">
          <mxGeometry x="130" y="800" width="120" height="30" as="geometry" />
        </mxCell>
        <mxCell id="yjKRYnCes210UCtiyBJC-55" style="edgeStyle=orthogonalEdgeStyle;rounded=0;orthogonalLoop=1;jettySize=auto;html=1;" edge="1" parent="1" source="yjKRYnCes210UCtiyBJC-41" target="yjKRYnCes210UCtiyBJC-48">
          <mxGeometry relative="1" as="geometry" />
        </mxCell>
        <mxCell id="yjKRYnCes210UCtiyBJC-41" value="TotalPrice(decimal)" style="text;html=1;align=center;verticalAlign=middle;resizable=0;points=[];autosize=1;strokeColor=none;fillColor=none;" vertex="1" parent="1">
          <mxGeometry x="130" y="840" width="130" height="30" as="geometry" />
        </mxCell>
        <mxCell id="yjKRYnCes210UCtiyBJC-43" value="" style="whiteSpace=wrap;html=1;aspect=fixed;" vertex="1" parent="1">
          <mxGeometry x="590" y="540" width="170" height="170" as="geometry" />
        </mxCell>
        <mxCell id="yjKRYnCes210UCtiyBJC-44" value="&lt;font style=&quot;font-size: 21px;&quot;&gt;Materials&lt;/font&gt;" style="text;html=1;align=center;verticalAlign=middle;resizable=0;points=[];autosize=1;strokeColor=none;fillColor=none;" vertex="1" parent="1">
          <mxGeometry x="625" y="540" width="110" height="40" as="geometry" />
        </mxCell>
        <mxCell id="yjKRYnCes210UCtiyBJC-45" value="Name(str)" style="text;html=1;align=center;verticalAlign=middle;resizable=0;points=[];autosize=1;strokeColor=none;fillColor=none;" vertex="1" parent="1">
          <mxGeometry x="635" y="590" width="80" height="30" as="geometry" />
        </mxCell>
        <mxCell id="yjKRYnCes210UCtiyBJC-46" value="UnitPrice(decimal)" style="text;html=1;align=center;verticalAlign=middle;resizable=0;points=[];autosize=1;strokeColor=none;fillColor=none;" vertex="1" parent="1">
          <mxGeometry x="615" y="630" width="120" height="30" as="geometry" />
        </mxCell>
        <mxCell id="yjKRYnCes210UCtiyBJC-48" value="" style="whiteSpace=wrap;html=1;aspect=fixed;" vertex="1" parent="1">
          <mxGeometry x="390" y="830" width="205" height="205" as="geometry" />
        </mxCell>
        <mxCell id="yjKRYnCes210UCtiyBJC-47" value="&lt;font style=&quot;font-size: 21px;&quot;&gt;Panel materials&lt;/font&gt;" style="text;html=1;align=center;verticalAlign=middle;resizable=0;points=[];autosize=1;strokeColor=none;fillColor=none;" vertex="1" parent="1">
          <mxGeometry x="402.5" y="830" width="170" height="40" as="geometry" />
        </mxCell>
        <mxCell id="yjKRYnCes210UCtiyBJC-49" value="id(Prymary key)" style="text;html=1;align=center;verticalAlign=middle;resizable=0;points=[];autosize=1;strokeColor=none;fillColor=none;" vertex="1" parent="1">
          <mxGeometry x="437.5" y="880" width="110" height="30" as="geometry" />
        </mxCell>
        <mxCell id="yjKRYnCes210UCtiyBJC-50" value="MaterialId(Primary key)" style="text;html=1;align=center;verticalAlign=middle;resizable=0;points=[];autosize=1;strokeColor=none;fillColor=none;" vertex="1" parent="1">
          <mxGeometry x="420" y="910" width="150" height="30" as="geometry" />
        </mxCell>
        <mxCell id="yjKRYnCes210UCtiyBJC-51" value="PanelId()primary key" style="text;html=1;align=center;verticalAlign=middle;resizable=0;points=[];autosize=1;strokeColor=none;fillColor=none;" vertex="1" parent="1">
          <mxGeometry x="427.5" y="940" width="130" height="30" as="geometry" />
        </mxCell>
        <mxCell id="yjKRYnCes210UCtiyBJC-53" value="Amount(decimal)" style="text;html=1;align=center;verticalAlign=middle;resizable=0;points=[];autosize=1;strokeColor=none;fillColor=none;" vertex="1" parent="1">
          <mxGeometry x="432.5" y="970" width="110" height="30" as="geometry" />
        </mxCell>
        <mxCell id="yjKRYnCes210UCtiyBJC-54" style="edgeStyle=orthogonalEdgeStyle;rounded=0;orthogonalLoop=1;jettySize=auto;html=1;entryX=0.996;entryY=0.542;entryDx=0;entryDy=0;entryPerimeter=0;" edge="1" parent="1" source="yjKRYnCes210UCtiyBJC-43" target="yjKRYnCes210UCtiyBJC-48">
          <mxGeometry relative="1" as="geometry" />
        </mxCell>
        <mxCell id="yjKRYnCes210UCtiyBJC-56" value="" style="whiteSpace=wrap;html=1;aspect=fixed;" vertex="1" parent="1">
          <mxGeometry x="85" y="320" width="210" height="210" as="geometry" />
        </mxCell>
        <mxCell id="yjKRYnCes210UCtiyBJC-57" value="&lt;font style=&quot;font-size: 21px;&quot;&gt;Building Panels&lt;/font&gt;" style="text;html=1;align=center;verticalAlign=middle;resizable=0;points=[];autosize=1;strokeColor=none;fillColor=none;" vertex="1" parent="1">
          <mxGeometry x="105" y="320" width="170" height="40" as="geometry" />
        </mxCell>
        <mxCell id="yjKRYnCes210UCtiyBJC-58" value="Id(Primary key)" style="text;html=1;align=center;verticalAlign=middle;resizable=0;points=[];autosize=1;strokeColor=none;fillColor=none;" vertex="1" parent="1">
          <mxGeometry x="145" y="360" width="100" height="30" as="geometry" />
        </mxCell>
        <mxCell id="yjKRYnCes210UCtiyBJC-59" value="BuildingId(Primary key)" style="text;html=1;align=center;verticalAlign=middle;resizable=0;points=[];autosize=1;strokeColor=none;fillColor=none;" vertex="1" parent="1">
          <mxGeometry x="120" y="400" width="150" height="30" as="geometry" />
        </mxCell>
        <mxCell id="yjKRYnCes210UCtiyBJC-60" value="PanelId(Primary key)" style="text;html=1;align=center;verticalAlign=middle;resizable=0;points=[];autosize=1;strokeColor=none;fillColor=none;" vertex="1" parent="1">
          <mxGeometry x="125" y="440" width="140" height="30" as="geometry" />
        </mxCell>
        <mxCell id="yjKRYnCes210UCtiyBJC-61" value="Amount(decimal)" style="text;html=1;align=center;verticalAlign=middle;resizable=0;points=[];autosize=1;strokeColor=none;fillColor=none;" vertex="1" parent="1">
          <mxGeometry x="140" y="480" width="110" height="30" as="geometry" />
        </mxCell>
        <mxCell id="yjKRYnCes210UCtiyBJC-62" style="edgeStyle=orthogonalEdgeStyle;rounded=0;orthogonalLoop=1;jettySize=auto;html=1;entryX=0.539;entryY=1.013;entryDx=0;entryDy=0;entryPerimeter=0;" edge="1" parent="1" source="yjKRYnCes210UCtiyBJC-33" target="yjKRYnCes210UCtiyBJC-56">
          <mxGeometry relative="1" as="geometry" />
        </mxCell>
        <mxCell id="yjKRYnCes210UCtiyBJC-63" style="edgeStyle=orthogonalEdgeStyle;rounded=0;orthogonalLoop=1;jettySize=auto;html=1;entryX=0;entryY=0.9;entryDx=0;entryDy=0;entryPerimeter=0;" edge="1" parent="1" source="yjKRYnCes210UCtiyBJC-57" target="yjKRYnCes210UCtiyBJC-8">
          <mxGeometry relative="1" as="geometry" />
        </mxCell>
      </root>
    </mxGraphModel>
  </diagram>
</mxfile>
